<svg width="609" height="393" viewBox="0 0 609 393" fill="none" xmlns="http://www.w3.org/2000/svg">
<rect width="609" height="393" rx="14" fill="#CFD4E2"/>
<rect x="56" y="100" width="500" height="293" fill="#F1F2F5"/>
<path d="M56 86C56 81.5817 59.5817 78 64 78H548C552.418 78 556 81.5817 556 86V148H56V86Z" fill="white"/>
<rect x="70" y="171" width="472" height="176" rx="3" fill="white"/>
<path d="M99.8913 197.62C99.5682 195.598 97.9847 194.416 95.9858 194.416C93.5391 194.416 91.734 196.249 91.734 199.273C91.734 202.297 93.5298 204.129 95.9858 204.129C98.0632 204.129 99.582 202.827 99.8913 200.958L98.451 200.953C98.2063 202.163 97.1907 202.827 95.995 202.827C94.3746 202.827 93.1513 201.586 93.1513 199.273C93.1513 196.978 94.37 195.718 95.9996 195.718C97.2045 195.718 98.2156 196.397 98.451 197.62H99.8913ZM104.474 204.143C106.473 204.143 107.78 202.68 107.78 200.487C107.78 198.28 106.473 196.817 104.474 196.817C102.475 196.817 101.169 198.28 101.169 200.487C101.169 202.68 102.475 204.143 104.474 204.143ZM104.479 202.984C103.172 202.984 102.563 201.844 102.563 200.482C102.563 199.125 103.172 197.971 104.479 197.971C105.776 197.971 106.386 199.125 106.386 200.482C106.386 201.844 105.776 202.984 104.479 202.984ZM110.701 194.545H109.32V204H110.701V194.545ZM115.545 204.143C117.544 204.143 118.85 202.68 118.85 200.487C118.85 198.28 117.544 196.817 115.545 196.817C113.546 196.817 112.239 198.28 112.239 200.487C112.239 202.68 113.546 204.143 115.545 204.143ZM115.549 202.984C114.243 202.984 113.633 201.844 113.633 200.482C113.633 199.125 114.243 197.971 115.549 197.971C116.847 197.971 117.456 199.125 117.456 200.482C117.456 201.844 116.847 202.984 115.549 202.984ZM120.391 204H121.771V199.67C121.771 198.742 122.487 198.072 123.465 198.072C123.752 198.072 124.075 198.123 124.186 198.156V196.835C124.047 196.817 123.775 196.803 123.599 196.803C122.768 196.803 122.057 197.274 121.799 198.036H121.725V196.909H120.391V204ZM130.201 199.79C130.201 198.659 130.916 198.012 131.9 198.012C132.851 198.012 133.419 198.617 133.419 199.656V204H134.799V199.49C134.799 197.722 133.829 196.817 132.371 196.817C131.267 196.817 130.602 197.297 130.27 198.063H130.182V194.545H128.82V204H130.201V199.79ZM136.641 204H138.021V196.909H136.641V204ZM137.338 195.815C137.813 195.815 138.21 195.446 138.21 194.993C138.21 194.541 137.813 194.167 137.338 194.167C136.858 194.167 136.465 194.541 136.465 194.993C136.465 195.446 136.858 195.815 137.338 195.815ZM145.192 198.64C144.905 197.537 144.042 196.817 142.509 196.817C140.908 196.817 139.772 197.662 139.772 198.917C139.772 199.924 140.381 200.593 141.711 200.888L142.911 201.152C143.594 201.304 143.913 201.609 143.913 202.052C143.913 202.601 143.327 203.031 142.422 203.031C141.595 203.031 141.065 202.675 140.898 201.978L139.564 202.181C139.795 203.437 140.838 204.143 142.431 204.143C144.144 204.143 145.33 203.234 145.33 201.95C145.33 200.949 144.693 200.33 143.391 200.03L142.265 199.771C141.485 199.587 141.148 199.324 141.152 198.843C141.148 198.299 141.739 197.911 142.523 197.911C143.382 197.911 143.779 198.386 143.941 198.862L145.192 198.64ZM150.158 196.909H148.704V195.21H147.323V196.909H146.285V198.017H147.323V202.204C147.319 203.492 148.302 204.115 149.392 204.092C149.83 204.088 150.126 204.005 150.287 203.945L150.038 202.804C149.945 202.823 149.775 202.864 149.553 202.864C149.105 202.864 148.704 202.717 148.704 201.918V198.017H150.158V196.909ZM154.595 204.143C156.594 204.143 157.901 202.68 157.901 200.487C157.901 198.28 156.594 196.817 154.595 196.817C152.597 196.817 151.29 198.28 151.29 200.487C151.29 202.68 152.597 204.143 154.595 204.143ZM154.6 202.984C153.294 202.984 152.684 201.844 152.684 200.482C152.684 199.125 153.294 197.971 154.6 197.971C155.897 197.971 156.507 199.125 156.507 200.482C156.507 201.844 155.897 202.984 154.6 202.984ZM159.442 204H160.822V199.67C160.822 198.742 161.537 198.072 162.516 198.072C162.802 198.072 163.126 198.123 163.236 198.156V196.835C163.098 196.817 162.825 196.803 162.65 196.803C161.819 196.803 161.108 197.274 160.85 198.036H160.776V196.909H159.442V204ZM165.519 206.641C166.659 206.641 167.384 206.045 167.79 204.946L170.722 196.923L169.231 196.909L167.435 202.412H167.361L165.565 196.909H164.088L166.683 204.092L166.512 204.563C166.161 205.482 165.667 205.565 164.91 205.357L164.577 206.488C164.744 206.567 165.104 206.641 165.519 206.641Z" fill="#363A48"/>
<rect x="516.994" y="139.115" width="35.9116" height="35.9116" rx="17.9558" transform="rotate(-128 516.994 139.115)" fill="url(#paint0_angular)"/>
<rect x="506.583" y="111.773" width="19.337" height="19.337" rx="9.66851" transform="rotate(-36 506.583 111.773)" fill="white"/>
<path d="M88.32 107.252L73 122.572" stroke="#0E1C2A" stroke-width="1.5" stroke-linecap="square"/>
<path d="M73.5103 107.252L88.8303 122.572" stroke="#0E1C2A" stroke-width="1.5" stroke-linecap="square"/>
<rect x="91" y="229" width="45" height="45" rx="6" fill="#36CAD2"/>
<rect x="91" y="285" width="45" height="46" rx="6" fill="#8793AC"/>
<rect x="146" y="285" width="45" height="46" rx="6" fill="#B4C1DA"/>
<rect x="201" y="285" width="46" height="46" rx="6" fill="#101E31"/>
<rect x="146" y="229" width="45" height="45" rx="6" fill="#EF634F"/>
<rect x="312" y="229" width="45" height="45" rx="6" fill="#C5D86D"/>
<rect x="201" y="229" width="46" height="45" rx="6" fill="#D7263D"/>
<rect x="367" y="229" width="45" height="45" rx="6" fill="#00A4C5"/>
<rect x="256" y="229" width="46" height="45" rx="6" fill="#2E294E"/>
<rect x="422" y="229" width="46" height="45" rx="6" fill="#8A30D6"/>
<rect x="477" y="229" width="46" height="45" rx="6" fill="#640A64"/>
<path fill-rule="evenodd" clip-rule="evenodd" d="M472.415 100.064L464.516 107.964C462.405 110.074 461.242 112.879 461.242 115.863C461.242 118.848 462.405 121.651 464.515 123.762C468.872 128.118 475.958 128.118 480.316 123.763C482.425 121.653 483.588 118.848 483.588 115.863C483.588 112.879 482.425 110.074 480.316 107.964L472.415 100.064ZM472.415 128.957C469.06 128.957 465.706 127.68 463.152 125.126C460.677 122.653 459.315 119.363 459.315 115.863C459.315 112.364 460.677 109.074 463.152 106.6L472.415 97.3364L481.679 106.6C484.152 109.074 485.514 112.364 485.514 115.863C485.514 119.363 484.152 122.653 481.677 125.126C479.123 127.68 475.77 128.957 472.415 128.957Z" fill="#0E1C2A"/>
<path fill-rule="evenodd" clip-rule="evenodd" d="M471.26 115.863C471.26 116.675 471.92 117.334 472.731 117.334C473.543 117.334 474.202 116.675 474.202 115.863C474.202 115.051 473.543 114.392 472.731 114.392C471.92 114.392 471.26 115.051 471.26 115.863Z" fill="#0E1C2A"/>
<g filter="url(#filter0_d)">
<rect x="70" y="133" width="255" height="214" rx="3" fill="white"/>
<rect x="70" y="133" width="255" height="214" rx="3" stroke="#E7E7EC"/>
</g>
<path d="M137.145 177H138.29V173.547H140.358C142.56 173.547 143.553 172.208 143.553 170.537C143.553 168.866 142.56 167.545 140.339 167.545H137.145V177ZM138.29 172.531V168.561H140.303C141.84 168.561 142.426 169.401 142.426 170.537C142.426 171.673 141.84 172.531 140.321 172.531H138.29ZM147.336 177.166C148.573 177.166 149.219 176.501 149.441 176.04H149.496V177H150.586V172.328C150.586 170.075 148.868 169.817 147.964 169.817C146.893 169.817 145.674 170.186 145.12 171.479L146.154 171.848C146.394 171.331 146.962 170.777 148.001 170.777C149.002 170.777 149.496 171.308 149.496 172.217V172.254C149.496 172.781 148.961 172.734 147.668 172.901C146.352 173.071 144.917 173.362 144.917 174.987C144.917 176.372 145.988 177.166 147.336 177.166ZM147.502 176.188C146.634 176.188 146.006 175.8 146.006 175.043C146.006 174.212 146.763 173.953 147.613 173.842C148.074 173.787 149.312 173.658 149.496 173.436V174.433C149.496 175.32 148.795 176.188 147.502 176.188ZM153.664 167.545H152.574V177H153.664V167.545ZM158.632 177.148C160.073 177.148 161.125 176.428 161.458 175.357L160.405 175.061C160.128 175.8 159.486 176.169 158.632 176.169C157.354 176.169 156.472 175.343 156.421 173.824H161.568V173.362C161.568 170.722 159.999 169.817 158.521 169.817C156.601 169.817 155.327 171.331 155.327 173.51C155.327 175.689 156.583 177.148 158.632 177.148ZM156.421 172.882C156.495 171.779 157.275 170.795 158.521 170.795C159.703 170.795 160.46 171.682 160.46 172.882H156.421ZM166.309 169.909H164.795V168.21H163.706V169.909H162.635V170.832H163.706V175.264C163.706 176.501 164.703 177.092 165.626 177.092C166.032 177.092 166.291 177.018 166.439 176.963L166.217 175.984C166.125 176.003 165.977 176.04 165.737 176.04C165.257 176.04 164.795 175.892 164.795 174.969V170.832H166.309V169.909ZM171.032 169.909H169.518V168.21H168.428V169.909H167.357V170.832H168.428V175.264C168.428 176.501 169.426 177.092 170.349 177.092C170.755 177.092 171.014 177.018 171.161 176.963L170.94 175.984C170.847 176.003 170.7 176.04 170.46 176.04C169.98 176.04 169.518 175.892 169.518 174.969V170.832H171.032V169.909ZM175.568 177.148C177.008 177.148 178.061 176.428 178.393 175.357L177.341 175.061C177.064 175.8 176.422 176.169 175.568 176.169C174.289 176.169 173.407 175.343 173.357 173.824H178.504V173.362C178.504 170.722 176.934 169.817 175.457 169.817C173.537 169.817 172.262 171.331 172.262 173.51C172.262 175.689 173.518 177.148 175.568 177.148ZM173.357 172.882C173.43 171.779 174.211 170.795 175.457 170.795C176.639 170.795 177.396 171.682 177.396 172.882H173.357ZM185.184 171.497C184.842 170.491 184.076 169.817 182.673 169.817C181.177 169.817 180.069 170.666 180.069 171.866C180.069 172.845 180.651 173.501 181.952 173.805L183.134 174.082C183.85 174.249 184.187 174.59 184.187 175.08C184.187 175.689 183.54 176.188 182.525 176.188C181.634 176.188 181.075 175.804 180.881 175.043L179.847 175.301C180.101 176.506 181.094 177.148 182.543 177.148C184.191 177.148 185.313 176.248 185.313 175.024C185.313 174.036 184.695 173.413 183.43 173.104L182.377 172.845C181.537 172.637 181.158 172.356 181.158 171.811C181.158 171.202 181.805 170.759 182.673 170.759C183.624 170.759 184.016 171.285 184.205 171.774L185.184 171.497Z" fill="#363A48"/>
<path d="M145.025 215.735C144.734 213.635 143.119 212.416 141.023 212.416C138.553 212.416 136.692 214.217 136.692 217.273C136.692 220.324 138.53 222.129 141.023 222.129C143.271 222.129 144.762 220.675 145.025 218.87L143.299 218.861C143.082 219.969 142.177 220.592 141.046 220.592C139.513 220.592 138.414 219.442 138.414 217.273C138.414 215.14 139.504 213.953 141.05 213.953C142.2 213.953 143.1 214.604 143.299 215.735H145.025ZM148.191 217.845C148.191 216.82 148.828 216.229 149.724 216.229C150.601 216.229 151.118 216.788 151.118 217.744V222H152.789V217.485C152.789 215.772 151.82 214.817 150.347 214.817C149.257 214.817 148.565 215.311 148.237 216.114H148.154V212.545H146.52V222H148.191V217.845ZM157.632 222.138C159.284 222.138 160.42 221.331 160.715 220.098L159.155 219.923C158.929 220.523 158.375 220.837 157.655 220.837C156.574 220.837 155.859 220.126 155.845 218.912H160.785V218.399C160.785 215.911 159.289 214.817 157.544 214.817C155.513 214.817 154.188 216.308 154.188 218.496C154.188 220.721 155.494 222.138 157.632 222.138ZM155.85 217.785C155.9 216.88 156.57 216.119 157.567 216.119C158.527 216.119 159.174 216.82 159.183 217.785H155.85ZM165.292 222.138C167.074 222.138 168.209 221.081 168.329 219.576H166.732C166.589 220.338 166.039 220.777 165.305 220.777C164.262 220.777 163.588 219.904 163.588 218.455C163.588 217.023 164.276 216.165 165.305 216.165C166.109 216.165 166.603 216.682 166.732 217.365H168.329C168.214 215.828 167.013 214.817 165.282 214.817C163.205 214.817 161.894 216.317 161.894 218.482C161.894 220.629 163.173 222.138 165.292 222.138ZM169.701 222H171.373V219.618L171.982 218.967L174.152 222H176.151L173.242 217.97L175.989 214.909H174.036L171.488 217.757H171.373V212.545H169.701V222ZM188.494 215.735C188.203 213.635 186.587 212.416 184.491 212.416C182.022 212.416 180.161 214.217 180.161 217.273C180.161 220.324 181.999 222.129 184.491 222.129C186.74 222.129 188.231 220.675 188.494 218.87L186.767 218.861C186.55 219.969 185.646 220.592 184.515 220.592C182.982 220.592 181.883 219.442 181.883 217.273C181.883 215.14 182.973 213.953 184.519 213.953C185.669 213.953 186.569 214.604 186.767 215.735H188.494ZM193.082 222.138C195.159 222.138 196.479 220.675 196.479 218.482C196.479 216.285 195.159 214.817 193.082 214.817C191.004 214.817 189.684 216.285 189.684 218.482C189.684 220.675 191.004 222.138 193.082 222.138ZM193.091 220.8C191.941 220.8 191.378 219.775 191.378 218.478C191.378 217.18 191.941 216.142 193.091 216.142C194.222 216.142 194.785 217.18 194.785 218.478C194.785 219.775 194.222 220.8 193.091 220.8ZM199.569 217.845C199.569 216.82 200.188 216.229 201.069 216.229C201.933 216.229 202.45 216.797 202.45 217.744V222H204.121V217.485C204.125 215.786 203.156 214.817 201.692 214.817C200.631 214.817 199.901 215.325 199.578 216.114H199.495V214.909H197.898V222H199.569V217.845ZM209.36 214.909H207.962V213.21H206.29V214.909H205.284V216.202H206.29V220.144C206.281 221.478 207.251 222.134 208.506 222.097C208.982 222.083 209.31 221.991 209.49 221.931L209.208 220.624C209.116 220.647 208.926 220.689 208.719 220.689C208.299 220.689 207.962 220.541 207.962 219.867V216.202H209.36V214.909ZM210.758 222H212.429V217.831C212.429 216.931 213.108 216.294 214.027 216.294C214.308 216.294 214.659 216.345 214.802 216.391V214.854C214.65 214.826 214.387 214.808 214.202 214.808C213.389 214.808 212.711 215.269 212.452 216.091H212.378V214.909H210.758V222ZM217.813 222.143C218.926 222.143 219.591 221.621 219.895 221.026H219.951V222H221.557V217.254C221.557 215.38 220.029 214.817 218.676 214.817C217.185 214.817 216.04 215.482 215.671 216.774L217.232 216.996C217.398 216.511 217.869 216.096 218.686 216.096C219.461 216.096 219.886 216.493 219.886 217.19V217.217C219.886 217.697 219.383 217.721 218.132 217.854C216.756 218.002 215.44 218.413 215.44 220.01C215.44 221.404 216.461 222.143 217.813 222.143ZM218.247 220.915C217.55 220.915 217.051 220.597 217.051 219.983C217.051 219.341 217.61 219.073 218.358 218.967C218.797 218.907 219.674 218.796 219.891 218.621V219.456C219.891 220.246 219.254 220.915 218.247 220.915ZM228.842 216.783C228.611 215.583 227.651 214.817 225.989 214.817C224.281 214.817 223.118 215.657 223.122 216.968C223.118 218.002 223.755 218.685 225.116 218.967L226.326 219.221C226.977 219.364 227.282 219.627 227.282 220.029C227.282 220.513 226.755 220.878 225.961 220.878C225.195 220.878 224.696 220.546 224.553 219.909L222.924 220.066C223.131 221.368 224.225 222.138 225.966 222.138C227.739 222.138 228.99 221.22 228.994 219.876C228.99 218.865 228.339 218.247 227 217.956L225.79 217.697C225.07 217.536 224.784 217.287 224.789 216.876C224.784 216.396 225.315 216.063 226.012 216.063C226.783 216.063 227.189 216.483 227.319 216.95L228.842 216.783ZM233.913 214.909H232.514V213.21H230.843V214.909H229.837V216.202H230.843V220.144C230.834 221.478 231.803 222.134 233.059 222.097C233.535 222.083 233.862 221.991 234.042 221.931L233.761 220.624C233.669 220.647 233.479 220.689 233.271 220.689C232.851 220.689 232.514 220.541 232.514 219.867V216.202H233.913V214.909Z" fill="#363A48"/>
<path d="M142.315 257.909H143.423C143.373 256.483 142.057 255.416 140.229 255.416C138.419 255.416 136.997 256.469 136.997 258.057C136.997 259.331 137.92 260.088 139.398 260.513L140.561 260.845C141.558 261.122 142.445 261.473 142.445 262.415C142.445 263.449 141.447 264.132 140.136 264.132C139.01 264.132 138.013 263.634 137.92 262.562H136.739C136.849 264.114 138.105 265.166 140.136 265.166C142.315 265.166 143.553 263.966 143.553 262.433C143.553 260.661 141.872 260.088 140.893 259.83L139.933 259.571C139.232 259.386 138.105 259.017 138.105 258.001C138.105 257.097 138.936 256.432 140.192 256.432C141.337 256.432 142.205 256.977 142.315 257.909ZM148.26 265.148C149.701 265.148 150.753 264.428 151.085 263.357L150.033 263.061C149.756 263.8 149.114 264.169 148.26 264.169C146.981 264.169 146.1 263.343 146.049 261.824H151.196V261.362C151.196 258.722 149.627 257.817 148.149 257.817C146.229 257.817 144.955 259.331 144.955 261.51C144.955 263.689 146.21 265.148 148.26 265.148ZM146.049 260.882C146.123 259.779 146.903 258.795 148.149 258.795C149.331 258.795 150.088 259.682 150.088 260.882H146.049ZM155.937 257.909H154.423V256.21H153.334V257.909H152.263V258.832H153.334V263.264C153.334 264.501 154.331 265.092 155.254 265.092C155.66 265.092 155.919 265.018 156.067 264.963L155.845 263.984C155.753 264.003 155.605 264.04 155.365 264.04C154.885 264.04 154.423 263.892 154.423 262.969V258.832H155.937V257.909ZM160.66 257.909H159.146V256.21H158.056V257.909H156.985V258.832H158.056V263.264C158.056 264.501 159.054 265.092 159.977 265.092C160.383 265.092 160.642 265.018 160.789 264.963L160.568 263.984C160.475 264.003 160.328 264.04 160.088 264.04C159.608 264.04 159.146 263.892 159.146 262.969V258.832H160.66V257.909ZM162.299 265H163.388V257.909H162.299V265ZM162.853 256.727C163.278 256.727 163.628 256.395 163.628 255.989C163.628 255.582 163.278 255.25 162.853 255.25C162.428 255.25 162.077 255.582 162.077 255.989C162.077 256.395 162.428 256.727 162.853 256.727ZM166.473 260.734C166.473 259.497 167.24 258.795 168.283 258.795C169.294 258.795 169.908 259.456 169.908 260.568V265H170.998V260.494C170.998 258.685 170.033 257.817 168.597 257.817C167.526 257.817 166.861 258.297 166.529 259.017H166.436V257.909H165.384V265H166.473V260.734ZM175.851 267.807C177.549 267.807 178.916 267.031 178.916 265.203V257.909H177.863V259.036H177.753C177.513 258.666 177.069 257.817 175.684 257.817C173.893 257.817 172.656 259.239 172.656 261.418C172.656 263.634 173.949 264.889 175.666 264.889C177.051 264.889 177.494 264.077 177.734 263.689H177.826V265.129C177.826 266.311 176.995 266.847 175.851 266.847C174.563 266.847 174.11 266.168 173.819 265.776L172.951 266.385C173.395 267.128 174.267 267.807 175.851 267.807ZM175.814 263.911C174.447 263.911 173.745 262.876 173.745 261.399C173.745 259.959 174.429 258.795 175.814 258.795C177.143 258.795 177.845 259.866 177.845 261.399C177.845 262.969 177.125 263.911 175.814 263.911ZM185.933 259.497C185.591 258.491 184.825 257.817 183.422 257.817C181.926 257.817 180.818 258.666 180.818 259.866C180.818 260.845 181.4 261.501 182.701 261.805L183.883 262.082C184.599 262.249 184.936 262.59 184.936 263.08C184.936 263.689 184.29 264.188 183.274 264.188C182.383 264.188 181.824 263.804 181.63 263.043L180.596 263.301C180.85 264.506 181.843 265.148 183.292 265.148C184.94 265.148 186.062 264.248 186.062 263.024C186.062 262.036 185.444 261.413 184.179 261.104L183.126 260.845C182.286 260.637 181.907 260.356 181.907 259.811C181.907 259.202 182.554 258.759 183.422 258.759C184.373 258.759 184.765 259.285 184.954 259.774L185.933 259.497Z" fill="#697088"/>
<path fill-rule="evenodd" clip-rule="evenodd" d="M107.343 213.615C108.666 212.555 110.31 211.978 112.005 211.978C115.287 211.979 118.185 214.119 119.153 217.255C120.121 220.391 118.933 223.792 116.222 225.643C113.512 227.494 109.912 227.363 107.343 225.32C106.022 226.383 104.377 226.963 102.682 226.962C99.3953 226.964 96.4915 224.824 95.521 221.685C94.5504 218.545 95.7398 215.14 98.4539 213.287C101.168 211.434 104.773 211.567 107.343 213.615ZM107.343 223.922C104.954 221.433 104.954 217.502 107.343 215.013C109.732 217.502 109.732 221.433 107.343 223.922ZM96.2276 219.468C96.2196 217.012 97.608 214.765 99.8079 213.674C102.008 212.583 104.637 212.837 106.587 214.329C103.845 217.208 103.845 221.732 106.587 224.611C104.636 226.104 102.006 226.358 99.8055 225.265C97.6053 224.173 96.2176 221.924 96.2276 219.468ZM108.141 224.611C109.252 225.457 110.608 225.918 112.005 225.926H112.031C114.844 225.93 117.335 224.111 118.189 221.431C119.042 218.75 118.061 215.826 115.764 214.202C113.467 212.579 110.383 212.63 108.141 214.329C110.883 217.208 110.883 221.732 108.141 224.611Z" fill="#363A48"/>
<path fill-rule="evenodd" clip-rule="evenodd" d="M110.001 272.761C110.148 272.959 110.38 273.076 110.627 273.077C110.759 273.088 110.892 273.064 111.012 273.008L114.228 271.173C114.574 270.976 114.716 270.551 114.559 270.186L113.661 267.966C113.88 267.691 114.079 267.401 114.258 267.098C114.426 266.808 114.575 266.506 114.702 266.195L117.074 265.914C117.464 265.867 117.758 265.537 117.76 265.145V261.44C117.759 261.048 117.468 260.717 117.079 260.666L114.746 260.365C114.486 259.717 114.139 259.108 113.715 258.554L114.628 256.404C114.784 256.04 114.644 255.617 114.302 255.417L111.106 253.552C110.767 253.352 110.332 253.437 110.094 253.75L108.644 255.609C107.954 255.513 107.253 255.513 106.562 255.609L105.152 253.73C104.92 253.425 104.501 253.335 104.165 253.518L100.954 255.343C100.608 255.539 100.464 255.963 100.618 256.33L101.536 258.505C101.328 258.768 101.139 259.045 100.968 259.334C100.79 259.651 100.635 259.98 100.505 260.32L98.1222 260.572C97.7317 260.621 97.4383 260.953 97.4365 261.346V265.046C97.4423 265.449 97.7506 265.783 98.1518 265.821L100.525 266.121C100.776 266.747 101.108 267.337 101.511 267.878L100.564 270.088C100.408 270.451 100.548 270.875 100.89 271.074L104.076 272.954C104.41 273.138 104.829 273.053 105.063 272.751L106.543 270.842C107.215 270.933 107.897 270.933 108.57 270.842L110.001 272.761ZM110.681 272.026L109.004 269.777L108.708 269.806C107.951 269.94 107.177 269.94 106.419 269.806L106.118 269.752L104.412 271.997L101.531 270.315L102.646 267.715L102.453 267.483C101.962 266.896 101.574 266.228 101.309 265.51L101.205 265.224L98.4231 264.869V261.534L101.22 261.184L101.324 260.898C101.457 260.527 101.623 260.169 101.817 259.827C102.014 259.507 102.237 259.204 102.483 258.92L102.675 258.688L101.6 256.118L104.496 254.465L106.138 256.69L106.439 256.641C107.214 256.5 108.008 256.5 108.782 256.641L109.093 256.695L110.755 254.495L113.646 256.177L112.536 258.717L112.729 258.949C113.238 259.551 113.636 260.239 113.903 260.981L114.001 261.268L116.749 261.623V264.957L113.986 265.283L113.878 265.564C113.745 265.924 113.58 266.27 113.385 266.6C113.184 266.94 112.955 267.262 112.699 267.562L112.502 267.794L113.582 270.369L110.681 272.026ZM107.593 265.747H107.524C106.506 265.721 105.604 265.084 105.239 264.134C104.874 263.183 105.118 262.106 105.857 261.406C106.498 260.732 107.459 260.468 108.355 260.718C109.25 260.968 109.935 261.692 110.135 262.6C110.335 263.508 110.018 264.453 109.31 265.056C108.847 265.497 108.233 265.744 107.593 265.747ZM106.121 263.207C106.133 262.393 106.779 261.729 107.593 261.697L107.588 261.711C108.006 261.707 108.408 261.874 108.698 262.175C109.28 262.789 109.256 263.757 108.644 264.341C108.349 264.62 107.955 264.771 107.549 264.76C106.736 264.704 106.109 264.022 106.121 263.207Z" fill="#757C92"/>
<path fill-rule="evenodd" clip-rule="evenodd" d="M115.341 171.182C114.107 169.945 112.269 169.533 110.624 170.124C111.299 168.246 110.665 166.148 109.062 164.958C107.46 163.769 105.268 163.769 103.665 164.958C102.063 166.148 101.429 168.246 102.103 170.124C100.406 169.516 98.5101 169.975 97.2779 171.291C96.0458 172.607 95.7129 174.529 96.4307 176.183C97.1485 177.837 98.7798 178.906 100.583 178.905C101.101 178.903 101.615 178.813 102.103 178.64C101.423 180.52 102.057 182.623 103.662 183.813C105.268 185.003 107.464 184.999 109.065 183.802C110.665 182.605 111.29 180.499 110.602 178.623C112.591 179.336 114.808 178.577 115.943 176.795C117.078 175.013 116.828 172.683 115.341 171.182ZM103.783 166.024C104.704 165.103 106.047 164.743 107.306 165.081C108.564 165.418 109.547 166.401 109.884 167.659C110.222 168.918 109.862 170.261 108.94 171.182L106.362 173.774L103.783 171.195C103.096 170.51 102.709 169.58 102.709 168.61C102.709 167.64 103.096 166.709 103.783 166.024ZM97.9993 171.804C96.5763 173.229 96.5783 175.538 98.0037 176.961C98.6893 177.649 99.6203 178.035 100.591 178.035C101.562 178.035 102.493 177.649 103.179 176.961L105.753 174.382L103.157 171.799C101.731 170.376 99.4223 170.378 97.9993 171.804ZM108.941 182.74C108.019 183.661 106.676 184.021 105.418 183.684C104.159 183.347 103.176 182.364 102.839 181.105C102.502 179.847 102.862 178.504 103.783 177.583L106.362 175.004L108.941 177.583C110.361 179.008 110.361 181.314 108.941 182.74ZM109.566 176.961C110.992 178.378 113.294 178.378 114.719 176.961H114.724C116.148 175.537 116.148 173.228 114.724 171.803C113.3 170.379 110.991 170.379 109.566 171.803L106.988 174.382L109.566 176.961Z" fill="#757C92"/>
<path d="M144.863 301.351C144.512 299.412 142.961 298.267 141.059 298.267C138.64 298.267 136.886 300.132 136.886 303.124C136.886 306.115 138.64 307.98 141.059 307.98C142.961 307.98 144.512 306.835 144.863 304.896H143.718C143.441 306.207 142.315 306.909 141.059 306.909C139.342 306.909 137.994 305.58 137.994 303.124C137.994 300.668 139.342 299.338 141.059 299.338C142.315 299.338 143.441 300.04 143.718 301.351H144.863ZM147.655 298.396H146.566V307.851H147.655V298.396ZM152.531 307.999C154.452 307.999 155.744 306.54 155.744 304.342C155.744 302.126 154.452 300.668 152.531 300.668C150.611 300.668 149.318 302.126 149.318 304.342C149.318 306.54 150.611 307.999 152.531 307.999ZM152.531 307.02C151.072 307.02 150.408 305.764 150.408 304.342C150.408 302.92 151.072 301.646 152.531 301.646C153.99 301.646 154.655 302.92 154.655 304.342C154.655 305.764 153.99 307.02 152.531 307.02ZM162.43 302.348C162.088 301.342 161.322 300.668 159.919 300.668C158.423 300.668 157.315 301.517 157.315 302.717C157.315 303.696 157.897 304.352 159.199 304.656L160.38 304.933C161.096 305.099 161.433 305.441 161.433 305.93C161.433 306.54 160.787 307.038 159.771 307.038C158.88 307.038 158.321 306.655 158.127 305.893L157.093 306.152C157.347 307.357 158.34 307.999 159.789 307.999C161.438 307.999 162.559 307.098 162.559 305.875C162.559 304.887 161.941 304.264 160.676 303.955L159.623 303.696C158.783 303.488 158.404 303.207 158.404 302.662C158.404 302.053 159.051 301.609 159.919 301.609C160.87 301.609 161.262 302.136 161.451 302.625L162.43 302.348ZM167.172 307.999C168.613 307.999 169.665 307.278 169.998 306.207L168.945 305.912C168.668 306.651 168.026 307.02 167.172 307.02C165.894 307.02 165.012 306.194 164.961 304.675H170.108V304.213C170.108 301.572 168.539 300.668 167.062 300.668C165.141 300.668 163.867 302.182 163.867 304.361C163.867 306.54 165.123 307.999 167.172 307.999ZM164.961 303.733C165.035 302.63 165.815 301.646 167.062 301.646C168.243 301.646 169 302.533 169 303.733H164.961ZM180.74 300.76H181.848C181.797 299.333 180.482 298.267 178.653 298.267C176.844 298.267 175.422 299.32 175.422 300.908C175.422 302.182 176.345 302.939 177.823 303.364L178.986 303.696C179.983 303.973 180.869 304.324 180.869 305.266C180.869 306.3 179.872 306.983 178.561 306.983C177.435 306.983 176.438 306.484 176.345 305.413H175.163C175.274 306.964 176.53 308.017 178.561 308.017C180.74 308.017 181.977 306.817 181.977 305.284C181.977 303.511 180.297 302.939 179.318 302.68L178.358 302.422C177.656 302.237 176.53 301.868 176.53 300.852C176.53 299.947 177.361 299.283 178.617 299.283C179.761 299.283 180.629 299.827 180.74 300.76ZM185.319 307.851H186.39L187.941 302.403H188.051L189.603 307.851H190.674L192.834 300.76H191.689L190.157 306.17H190.083L188.587 300.76H187.424L185.909 306.189H185.836L184.303 300.76H183.158L185.319 307.851ZM196.361 308.017C197.598 308.017 198.245 307.352 198.466 306.891H198.522V307.851H199.611V303.179C199.611 300.926 197.894 300.668 196.989 300.668C195.918 300.668 194.699 301.037 194.145 302.33L195.179 302.699C195.419 302.182 195.987 301.628 197.026 301.628C198.028 301.628 198.522 302.159 198.522 303.068V303.105C198.522 303.631 197.986 303.585 196.694 303.751C195.378 303.922 193.942 304.213 193.942 305.838C193.942 307.223 195.013 308.017 196.361 308.017ZM196.527 307.038C195.659 307.038 195.032 306.651 195.032 305.893C195.032 305.062 195.789 304.804 196.638 304.693C197.1 304.638 198.337 304.509 198.522 304.287V305.284C198.522 306.17 197.82 307.038 196.527 307.038ZM204.48 307.999C206.05 307.999 207.084 307.038 207.269 305.783H206.179C205.976 306.558 205.33 307.02 204.48 307.02C203.188 307.02 202.357 305.949 202.357 304.305C202.357 302.699 203.206 301.646 204.48 301.646C205.441 301.646 206.013 302.237 206.179 302.884H207.269C207.084 301.554 205.958 300.668 204.462 300.668C202.541 300.668 201.267 302.182 201.267 304.342C201.267 306.466 202.486 307.999 204.48 307.999ZM209.951 303.585C209.951 302.348 210.74 301.646 211.816 301.646C212.841 301.646 213.459 302.293 213.459 303.419V307.851H214.549V303.345C214.549 301.522 213.579 300.668 212.13 300.668C211.013 300.668 210.376 301.134 210.043 301.868H209.951V298.396H208.861V307.851H209.951V303.585Z" fill="#697088"/>
<path fill-rule="evenodd" clip-rule="evenodd" d="M98.7012 302.417C100.255 298.671 103.912 296.23 107.967 296.232C113.5 296.24 117.982 300.725 117.988 306.258C117.988 310.313 115.545 313.969 111.798 315.52C108.051 317.072 103.738 316.213 100.871 313.345C98.0043 310.477 97.1478 306.164 98.7012 302.417ZM99.6343 309.705C101.031 313.074 104.32 315.269 107.967 315.267C112.941 315.262 116.971 311.231 116.977 306.258C116.979 302.61 114.783 299.321 111.414 297.925C108.045 296.528 104.166 297.299 101.588 299.878C99.0086 302.457 98.2376 306.336 99.6343 309.705Z" fill="#757C92"/>
<path d="M111.717 302.503C111.622 302.408 111.493 302.354 111.358 302.354C111.223 302.354 111.094 302.408 110.999 302.503L107.967 305.535L104.935 302.503C104.737 302.305 104.416 302.305 104.218 302.503C104.02 302.701 104.02 303.023 104.218 303.221L107.25 306.253L104.218 309.285C104.022 309.482 104.022 309.8 104.218 309.997C104.313 310.093 104.442 310.147 104.576 310.147C104.711 310.147 104.84 310.093 104.935 309.997L107.967 306.965L110.999 309.997C111.094 310.092 111.224 310.144 111.358 310.144C111.492 310.144 111.621 310.092 111.717 309.997C111.913 309.8 111.913 309.482 111.717 309.285L108.685 306.253L111.717 303.221C111.812 303.126 111.866 302.997 111.866 302.862C111.866 302.727 111.812 302.598 111.717 302.503Z" fill="#757C92"/>
<defs>
<filter id="filter0_d" x="52.5" y="132.5" width="290" height="252" filterUnits="userSpaceOnUse" color-interpolation-filters="sRGB">
<feFlood flood-opacity="0" result="BackgroundImageFix"/>
<feColorMatrix in="SourceAlpha" type="matrix" values="0 0 0 0 0 0 0 0 0 0 0 0 0 0 0 0 0 0 127 0"/>
<feMorphology radius="8" operator="erode" in="SourceAlpha" result="effect1_dropShadow"/>
<feOffset dy="20"/>
<feGaussianBlur stdDeviation="12.5"/>
<feColorMatrix type="matrix" values="0 0 0 0 0 0 0 0 0 0 0 0 0 0 0 0 0 0 0.0841073 0"/>
<feBlend mode="normal" in2="BackgroundImageFix" result="effect1_dropShadow"/>
<feBlend mode="normal" in="SourceGraphic" in2="effect1_dropShadow" result="shape"/>
</filter>
<radialGradient id="paint0_angular" cx="0" cy="0" r="1" gradientUnits="userSpaceOnUse" gradientTransform="translate(534.949 157.071) scale(17.9558)">
<stop stop-color="#FF0000"/>
<stop offset="0.173072" stop-color="#FFD300"/>
<stop offset="0.326996" stop-color="#F1FF00"/>
<stop offset="0.462089" stop-color="#00FF39"/>
<stop offset="0.598176" stop-color="#00BCFF"/>
<stop offset="0.736904" stop-color="#1C00FF"/>
<stop offset="0.903382" stop-color="#FE00FF"/>
<stop offset="1" stop-color="#FF0000"/>
</radialGradient>
</defs>
</svg>
