<?xml version="1.0" encoding="UTF-8"?>
<svg width="74px" height="67px" viewBox="0 0 74 67" version="1.1" xmlns="http://www.w3.org/2000/svg" xmlns:xlink="http://www.w3.org/1999/xlink">
    <!-- Generator: Sketch 63.1 (92452) - https://sketch.com -->
    <title>Icon 4c Copy</title>
    <desc>Created with Sketch.</desc>
    <g id="Landing-Page" stroke="none" stroke-width="1" fill="none" fill-rule="evenodd">
        <g id="Swach-homepage" transform="translate(-841.000000, -2525.000000)" fill-rule="nonzero">
            <g id="Icon-4c-Copy" transform="translate(838.000000, 2522.000000)">
                <rect id="Rectangle" fill="#0BE8E6" x="3.90243902" y="49.6165775" width="72.4019512" height="19.6475401" rx="9.82377005"></rect>
                <path d="M0.528465683,26.7653581 L53.3060128,26.7576841 C58.7285878,26.7568957 63.1250925,31.1521221 63.125881,36.5746971 C63.1258811,36.5756615 63.1258811,36.5766259 63.125881,36.5775903 C63.1250712,42.0022304 58.7277207,46.3995607 53.3030807,46.4003456 L0.525623174,46.4079818 C-4.89696614,46.4087664 -9.29347936,42.0135252 -9.29426394,36.5909359 C-9.29426408,36.5899888 -9.29426408,36.5890416 -9.29426394,36.5880945 C-9.29347893,31.1634748 -4.89615399,26.7661468 0.528465683,26.7653581 Z" id="Rectangle" fill="#FF0040" style="mix-blend-mode: multiply;" transform="translate(26.915831, 36.582829) rotate(-60.000000) translate(-26.915831, -36.582829) "></path>
                <path d="M26.9002578,26.7544311 L79.6777156,26.7620673 C85.1023554,26.7628522 89.4997056,31.1601824 89.5005151,36.5848223 C89.5013243,42.0073974 85.1061145,46.4039191 79.6835394,46.4047283 C79.6825752,46.4047284 79.6816109,46.4047284 79.6806467,46.4047283 L26.9031003,46.3970548 C21.4784806,46.3962661 17.0811557,41.9989381 17.0803707,36.5743184 C17.079586,31.1517291 21.474827,26.7552158 26.8974163,26.7544311 C26.8983635,26.7544309 26.8993106,26.7544309 26.9002578,26.7544311 Z" id="Rectangle" fill="#FFAF15" style="mix-blend-mode: multiply;" transform="translate(53.290465, 36.579583) rotate(-120.000000) translate(-53.290465, -36.579583) "></path>
            </g>
        </g>
    </g>
</svg>