<?xml version="1.0" encoding="UTF-8"?>
<svg width="858px" height="619px" viewBox="0 0 858 619" version="1.1" xmlns="http://www.w3.org/2000/svg" xmlns:xlink="http://www.w3.org/1999/xlink">
    <!-- Generator: Sketch 63.1 (92452) - https://sketch.com -->
    <desc>Created with Sketch.</desc>
    <defs>
        <polygon id="path-1" points="0.00138791798 0.00439243444 796.995941 0.00439243444 796.995941 795 0.00138791798 795"></polygon>
    </defs>
    <g id="Landing-Page" stroke="none" stroke-width="1" fill="none" fill-rule="evenodd">
        <g id="Swach-homepage" transform="translate(-582.000000, -0.000000)">
            <g id="Group-4" transform="translate(582.000000, -177.000000)">
                <g id="Group-3">
                    <mask id="mask-2" fill="white">
                        <use xlink:href="#path-1"></use>
                    </mask>
                    <g id="Clip-2"></g>
                    <path d="M566.379489,564.958743 C538.912592,592.360223 494.377773,592.360223 466.910877,564.958743 C439.44398,537.560724 439.44398,493.141045 466.910877,465.739565 C494.377773,438.345007 538.912592,438.345007 566.379489,465.739565 C593.846385,493.141045 593.846385,537.560724 566.379489,564.958743 M714.553612,315.687302 L480.515943,82.2399825 C370.589369,-27.4074709 192.36682,-27.4074709 82.4437161,82.2399825 C-27.4793881,191.887436 -27.4793881,369.663061 82.4437161,479.310514 L316.484856,712.764756 C426.40449,822.412209 604.627038,822.412209 714.553612,712.764756 C824.476717,603.113842 824.476717,425.338217 714.553612,315.687302" id="Fill-1" fill="#FF0040" mask="url(#mask-2)"></path>
                </g>
                <g id="Group-6" transform="translate(234.000000, 0.000000)" fill="#0BE8E6">
                    <path d="M332.698684,565.449696 C305.244272,592.874941 260.729696,592.874941 233.275284,565.449696 C205.820872,538.027916 205.820872,493.569713 233.275284,466.144469 C260.729696,438.726152 305.244272,438.726152 332.698684,466.144469 C360.153096,493.569713 360.153096,538.027916 332.698684,565.449696 M714.736747,82.3122871 L714.733279,82.3122871 C604.863607,-27.4302605 426.7186,-27.4302605 316.848928,82.3122871 L82.9176379,315.962069 C-26.9589701,425.708081 -26.9589701,603.637886 82.9176379,713.383898 C192.78731,823.126445 370.928849,823.126445 480.805457,713.383898 L714.736747,479.727187 C824.609887,369.98464 824.609887,192.054835 714.736747,82.3122871" id="Fill-4" style="mix-blend-mode: multiply;"></path>
                </g>
            </g>
        </g>
    </g>
</svg>