<svg width="609" height="286" viewBox="0 0 609 286" fill="none" xmlns="http://www.w3.org/2000/svg">
<rect width="609" height="286" rx="14" fill="#CFD4E2"/>
<path d="M55 120C55 112.82 60.8203 107 68 107H555V283C555 284.657 553.657 286 552 286H55V120Z" fill="#F1F2F5"/>
<path d="M111.5 113.458H81.5" stroke="#0E1C2A" stroke-width="2" stroke-linecap="square"/>
<path d="M111.5 123.542H81.5" stroke="#0E1C2A" stroke-width="2" stroke-linecap="square"/>
<path d="M111.5 103.375H81.5" stroke="#0E1C2A" stroke-width="2" stroke-linecap="square"/>
<rect x="80" y="171" width="450" height="115" fill="white"/>
<path fill-rule="evenodd" clip-rule="evenodd" d="M509.516 90.8904L497.164 103.243C493.864 106.543 492.045 110.929 492.045 115.595C492.045 120.262 493.864 124.647 497.162 127.947C503.976 134.759 515.056 134.759 521.87 127.949C525.169 124.649 526.987 120.262 526.987 115.595C526.987 110.929 525.169 106.543 521.87 103.243L509.516 90.8904ZM509.516 136.07C504.27 136.07 499.026 134.074 495.032 130.081C491.162 126.213 489.032 121.068 489.032 115.595C489.032 110.124 491.162 104.979 495.032 101.111L509.516 86.6248L524.002 101.111C527.871 104.979 530 110.124 530 115.595C530 121.068 527.871 126.213 524 130.081C520.007 134.074 514.762 136.07 509.516 136.07Z" fill="#0E1C2A"/>
<path fill-rule="evenodd" clip-rule="evenodd" d="M507.71 115.596C507.71 116.866 508.743 117.896 510.011 117.896C511.281 117.896 512.311 116.866 512.311 115.596C512.311 114.326 511.281 113.296 510.011 113.296C508.743 113.296 507.71 114.326 507.71 115.596Z" fill="#0E1C2A"/>
<path d="M112.995 203.675C112.523 200.72 110.208 198.993 107.287 198.993C103.711 198.993 101.073 201.672 101.073 206.091C101.073 210.51 103.697 213.189 107.287 213.189C110.323 213.189 112.543 211.286 112.995 208.554L110.89 208.547C110.532 210.315 109.048 211.286 107.3 211.286C104.932 211.286 103.144 209.471 103.144 206.091C103.144 202.738 104.925 200.896 107.307 200.896C109.068 200.896 110.546 201.887 110.89 203.675H112.995ZM119.693 213.209C122.615 213.209 124.524 211.07 124.524 207.865C124.524 204.64 122.615 202.501 119.693 202.501C116.772 202.501 114.862 204.64 114.862 207.865C114.862 211.07 116.772 213.209 119.693 213.209ZM119.7 211.516C117.791 211.516 116.9 209.849 116.9 207.859C116.9 205.875 117.791 204.188 119.7 204.188C121.596 204.188 122.487 205.875 122.487 207.859C122.487 209.849 121.596 211.516 119.7 211.516ZM128.794 199.182H126.776V213H128.794V199.182ZM135.873 213.209C138.794 213.209 140.704 211.07 140.704 207.865C140.704 204.64 138.794 202.501 135.873 202.501C132.951 202.501 131.042 204.64 131.042 207.865C131.042 211.07 132.951 213.209 135.873 213.209ZM135.88 211.516C133.97 211.516 133.08 209.849 133.08 207.859C133.08 205.875 133.97 204.188 135.88 204.188C137.776 204.188 138.666 205.875 138.666 207.859C138.666 209.849 137.776 211.516 135.88 211.516ZM142.956 213H144.973V206.671C144.973 205.315 146.019 204.337 147.449 204.337C147.868 204.337 148.34 204.411 148.502 204.458V202.528C148.3 202.501 147.901 202.481 147.645 202.481C146.431 202.481 145.392 203.169 145.014 204.283H144.906V202.636H142.956V213ZM157.294 206.847C157.294 205.194 158.339 204.249 159.776 204.249C161.166 204.249 161.996 205.133 161.996 206.651V213H164.014V206.408C164.014 203.824 162.597 202.501 160.465 202.501C158.852 202.501 157.881 203.203 157.395 204.323H157.267V199.182H155.276V213H157.294V206.847ZM166.706 213H168.723V202.636H166.706V213ZM167.725 201.037C168.42 201.037 169 200.498 169 199.836C169 199.175 168.42 198.629 167.725 198.629C167.023 198.629 166.449 199.175 166.449 199.836C166.449 200.498 167.023 201.037 167.725 201.037ZM179.203 205.167C178.785 203.554 177.523 202.501 175.283 202.501C172.942 202.501 171.282 203.736 171.282 205.571C171.282 207.042 172.173 208.021 174.116 208.452L175.87 208.837C176.869 209.06 177.334 209.505 177.334 210.153C177.334 210.956 176.477 211.583 175.155 211.583C173.947 211.583 173.171 211.064 172.928 210.045L170.978 210.342C171.316 212.177 172.841 213.209 175.168 213.209C177.672 213.209 179.406 211.88 179.406 210.004C179.406 208.54 178.475 207.636 176.572 207.197L174.926 206.82C173.785 206.55 173.293 206.165 173.299 205.463C173.293 204.667 174.156 204.1 175.303 204.1C176.558 204.1 177.139 204.795 177.375 205.49L179.203 205.167ZM186.461 202.636H184.336V200.153H182.319V202.636H180.801V204.256H182.319V210.375C182.312 212.258 183.749 213.169 185.341 213.135C185.982 213.128 186.414 213.007 186.65 212.919L186.286 211.252C186.151 211.279 185.901 211.34 185.578 211.34C184.923 211.34 184.336 211.124 184.336 209.957V204.256H186.461V202.636ZM192.947 213.209C195.869 213.209 197.778 211.07 197.778 207.865C197.778 204.64 195.869 202.501 192.947 202.501C190.026 202.501 188.116 204.64 188.116 207.865C188.116 211.07 190.026 213.209 192.947 213.209ZM192.954 211.516C191.044 211.516 190.154 209.849 190.154 207.859C190.154 205.875 191.044 204.188 192.954 204.188C194.85 204.188 195.741 205.875 195.741 207.859C195.741 209.849 194.85 211.516 192.954 211.516ZM200.03 213H202.047V206.671C202.047 205.315 203.093 204.337 204.524 204.337C204.942 204.337 205.414 204.411 205.576 204.458V202.528C205.374 202.501 204.976 202.481 204.719 202.481C203.505 202.481 202.466 203.169 202.088 204.283H201.98V202.636H200.03V213ZM208.913 216.859C210.579 216.859 211.638 215.989 212.232 214.383L216.517 202.657L214.337 202.636L211.713 210.679H211.605L208.98 202.636H206.821L210.613 213.135L210.363 213.823C209.85 215.166 209.129 215.287 208.022 214.984L207.536 216.637C207.779 216.751 208.305 216.859 208.913 216.859Z" fill="#363A48"/>
<rect x="55" y="101" width="500" height="185" fill="#F1F2F5"/>
<path d="M55 85C55 81.134 58.134 78 62 78H548C551.866 78 555 81.134 555 85V148H55V85Z" fill="white"/>
<path d="M69 174C69 172.343 70.3431 171 72 171H538C539.657 171 541 172.343 541 174V286H69V174Z" fill="white"/>
<path d="M100.943 198.148C100.545 195.659 98.5966 194.205 96.1364 194.205C93.125 194.205 90.9034 196.46 90.9034 200.182C90.9034 203.903 93.1136 206.159 96.1364 206.159C98.6932 206.159 100.562 204.557 100.943 202.256L99.1705 202.25C98.8693 203.739 97.6193 204.557 96.1477 204.557C94.1534 204.557 92.6477 203.028 92.6477 200.182C92.6477 197.358 94.1477 195.807 96.1534 195.807C97.6364 195.807 98.8807 196.642 99.1705 198.148H100.943ZM106.584 206.176C109.044 206.176 110.652 204.375 110.652 201.676C110.652 198.96 109.044 197.159 106.584 197.159C104.124 197.159 102.516 198.96 102.516 201.676C102.516 204.375 104.124 206.176 106.584 206.176ZM106.589 204.75C104.982 204.75 104.232 203.347 104.232 201.67C104.232 200 104.982 198.58 106.589 198.58C108.186 198.58 108.936 200 108.936 201.67C108.936 203.347 108.186 204.75 106.589 204.75ZM114.247 194.364H112.548V206H114.247V194.364ZM120.209 206.176C122.669 206.176 124.277 204.375 124.277 201.676C124.277 198.96 122.669 197.159 120.209 197.159C117.749 197.159 116.141 198.96 116.141 201.676C116.141 204.375 117.749 206.176 120.209 206.176ZM120.214 204.75C118.607 204.75 117.857 203.347 117.857 201.67C117.857 200 118.607 198.58 120.214 198.58C121.811 198.58 122.561 200 122.561 201.67C122.561 203.347 121.811 204.75 120.214 204.75ZM126.173 206H127.872V200.67C127.872 199.528 128.753 198.705 129.957 198.705C130.31 198.705 130.707 198.767 130.844 198.807V197.182C130.673 197.159 130.338 197.142 130.122 197.142C129.099 197.142 128.224 197.722 127.906 198.659H127.815V197.273H126.173V206ZM138.247 200.818C138.247 199.426 139.128 198.631 140.338 198.631C141.509 198.631 142.207 199.375 142.207 200.653V206H143.906V200.449C143.906 198.273 142.713 197.159 140.918 197.159C139.56 197.159 138.741 197.75 138.332 198.693H138.224V194.364H136.548V206H138.247V200.818ZM146.173 206H147.872V197.273H146.173V206ZM147.031 195.926C147.616 195.926 148.105 195.472 148.105 194.915C148.105 194.358 147.616 193.898 147.031 193.898C146.44 193.898 145.957 194.358 145.957 194.915C145.957 195.472 146.44 195.926 147.031 195.926ZM156.697 199.403C156.345 198.045 155.283 197.159 153.396 197.159C151.425 197.159 150.027 198.199 150.027 199.744C150.027 200.983 150.777 201.807 152.413 202.17L153.891 202.494C154.732 202.682 155.124 203.057 155.124 203.602C155.124 204.278 154.402 204.807 153.288 204.807C152.271 204.807 151.618 204.369 151.413 203.511L149.771 203.761C150.055 205.307 151.339 206.176 153.3 206.176C155.408 206.176 156.868 205.057 156.868 203.477C156.868 202.244 156.084 201.483 154.482 201.114L153.095 200.795C152.135 200.568 151.72 200.244 151.726 199.653C151.72 198.983 152.447 198.506 153.413 198.506C154.47 198.506 154.959 199.091 155.158 199.676L156.697 199.403ZM162.81 197.273H161.02V195.182H159.321V197.273H158.043V198.636H159.321V203.79C159.315 205.375 160.526 206.142 161.866 206.114C162.406 206.108 162.77 206.006 162.969 205.932L162.662 204.528C162.548 204.551 162.338 204.602 162.065 204.602C161.514 204.602 161.02 204.42 161.02 203.438V198.636H162.81V197.273ZM168.271 206.176C170.732 206.176 172.339 204.375 172.339 201.676C172.339 198.96 170.732 197.159 168.271 197.159C165.811 197.159 164.203 198.96 164.203 201.676C164.203 204.375 165.811 206.176 168.271 206.176ZM168.277 204.75C166.669 204.75 165.919 203.347 165.919 201.67C165.919 200 166.669 198.58 168.277 198.58C169.874 198.58 170.624 200 170.624 201.67C170.624 203.347 169.874 204.75 168.277 204.75ZM174.236 206H175.935V200.67C175.935 199.528 176.815 198.705 178.02 198.705C178.372 198.705 178.77 198.767 178.906 198.807V197.182C178.736 197.159 178.401 197.142 178.185 197.142C177.162 197.142 176.287 197.722 175.969 198.659H175.878V197.273H174.236V206ZM181.716 209.25C183.119 209.25 184.011 208.517 184.511 207.165L188.119 197.29L186.284 197.273L184.074 204.045H183.983L181.773 197.273H179.955L183.148 206.114L182.938 206.693C182.506 207.824 181.898 207.926 180.966 207.67L180.557 209.062C180.761 209.159 181.205 209.25 181.716 209.25Z" fill="#363A48"/>
<path fill-rule="evenodd" clip-rule="evenodd" d="M504.94 124.966C511.045 132.781 522.329 134.166 530.144 128.061C537.958 121.956 539.344 110.671 533.238 102.857C527.133 95.0424 515.849 93.6569 508.034 99.7622C500.22 105.868 498.834 117.152 504.94 124.966ZM513.406 106.09C509.086 109.228 508.128 115.275 511.267 119.595C514.406 123.915 520.452 124.872 524.772 121.734C529.092 118.595 530.05 112.549 526.911 108.229C523.772 103.909 517.726 102.951 513.406 106.09Z" fill="url(#paint0_angular)"/>
<rect x="90" y="226" width="45" height="45" rx="6" fill="#36CAD2"/>
<rect x="145" y="226" width="45" height="45" rx="6" fill="#EF634F"/>
<rect x="311" y="226" width="45" height="45" rx="6" fill="#C5D86D"/>
<rect x="200" y="226" width="46" height="45" rx="6" fill="#D7263D"/>
<rect x="366" y="226" width="45" height="45" rx="6" fill="#00A4C5"/>
<rect x="255" y="226" width="46" height="45" rx="6" fill="#2E294E"/>
<rect x="421" y="226" width="46" height="45" rx="6" fill="#8A30D6"/>
<rect x="476" y="226" width="46" height="45" rx="6" fill="#640A64"/>
<path d="M98.6364 111.5H71.3636" stroke="#0E1C2A" stroke-width="1.25" stroke-linecap="square"/>
<path d="M98.6364 120.5H71.3636" stroke="#0E1C2A" stroke-width="1.25" stroke-linecap="square"/>
<path d="M98.6364 102H71.3636" stroke="#0E1C2A" stroke-width="1.25" stroke-linecap="square"/>
<g filter="url(#filter0_d)">
<circle cx="471" cy="112" r="59" fill="white"/>
</g>
<mask id="mask0" mask-type="alpha" maskUnits="userSpaceOnUse" x="412" y="53" width="118" height="118">
<circle cx="471" cy="112" r="59" fill="white"/>
</mask>
<g mask="url(#mask0)">
<rect x="399" y="71" width="143" height="84" fill="white"/>
<rect x="399" y="52" width="143" height="19" fill="#CFD4E2"/>
<rect x="399" y="153" width="143" height="17" fill="#F1F2F5"/>
</g>
<circle cx="471" cy="112" r="57.5" stroke="#B4B9C9" stroke-width="3"/>
<path fill-rule="evenodd" clip-rule="evenodd" d="M470.586 89.5114L457.522 102.575C454.032 106.065 452.108 110.705 452.108 115.639C452.108 120.575 454.032 125.212 457.52 128.702C464.726 135.907 476.445 135.907 483.651 128.704C487.139 125.214 489.063 120.575 489.063 115.639C489.063 110.705 487.139 106.065 483.651 102.575L470.586 89.5114ZM470.585 137.293C465.037 137.293 459.491 135.183 455.267 130.959C451.174 126.868 448.921 121.427 448.921 115.639C448.921 109.853 451.174 104.411 455.267 100.32L470.585 85L485.906 100.32C489.997 104.411 492.249 109.853 492.249 115.639C492.249 121.427 489.997 126.868 485.903 130.959C481.68 135.183 476.134 137.293 470.585 137.293Z" fill="#0E1C2A"/>
<path fill-rule="evenodd" clip-rule="evenodd" d="M468.676 115.64C468.676 116.983 469.768 118.072 471.108 118.072C472.452 118.072 473.541 116.983 473.541 115.64C473.541 114.296 472.452 113.207 471.108 113.207C469.768 113.207 468.676 114.296 468.676 115.64Z" fill="#0E1C2A"/>
<defs>
<filter id="filter0_d" x="395" y="40" width="152" height="152" filterUnits="userSpaceOnUse" color-interpolation-filters="sRGB">
<feFlood flood-opacity="0" result="BackgroundImageFix"/>
<feColorMatrix in="SourceAlpha" type="matrix" values="0 0 0 0 0 0 0 0 0 0 0 0 0 0 0 0 0 0 127 0"/>
<feOffset dy="4"/>
<feGaussianBlur stdDeviation="8.5"/>
<feColorMatrix type="matrix" values="0 0 0 0 0.811765 0 0 0 0 0.831373 0 0 0 0 0.886275 0 0 0 1 0"/>
<feBlend mode="multiply" in2="BackgroundImageFix" result="effect1_dropShadow"/>
<feBlend mode="normal" in="SourceGraphic" in2="effect1_dropShadow" result="shape"/>
</filter>
<radialGradient id="paint0_angular" cx="0" cy="0" r="1" gradientUnits="userSpaceOnUse" gradientTransform="translate(519.089 113.912) scale(17.9566)">
<stop stop-color="#FF0000"/>
<stop offset="0.173072" stop-color="#FFD300"/>
<stop offset="0.326996" stop-color="#F1FF00"/>
<stop offset="0.462089" stop-color="#00FF39"/>
<stop offset="0.598176" stop-color="#00BCFF"/>
<stop offset="0.736904" stop-color="#1C00FF"/>
<stop offset="0.903382" stop-color="#FE00FF"/>
<stop offset="1" stop-color="#FF0000"/>
</radialGradient>
</defs>
</svg>
